<svg xmlns="http://www.w3.org/2000/svg" viewBox="0 0 64 64" width="64" height="64">
  <defs>
    <linearGradient id="a" x1="0%" y1="0%" x2="100%" y2="100%">
      <stop offset="0%" stop-color="#0f766e"/>
      <stop offset="100%" stop-color="#0369a1"/>
    </linearGradient>
    <linearGradient id="b" x1="0%" y1="0%" x2="100%" y2="0%">
      <stop offset="0%" stop-color="#f59e0b"/>
      <stop offset="100%" stop-color="#fbbf24"/>
    </linearGradient>
  </defs>
  <rect width="64" height="64" rx="14" fill="url(#a)"/>
  <!-- Stylized S -->
  <path d="M20 22c0-3.3 2.7-6 6-6h12c3.3 0 6 2.7 6 6v2c0 1.7-1.3 3-3 3H23c-1.7 0-3 1.3-3 3v2c0 1.7 1.3 3 3 3h12c1.7 0 3 1.3 3 3v2c0 3.3-2.7 6-6 6H20" stroke="white" stroke-width="4" stroke-linecap="round" fill="none"/>
  <!-- Accent spark -->
  <circle cx="49" cy="15" r="4.5" fill="url(#b)"/>
  <circle cx="49" cy="15" r="2" fill="white" opacity="0.6"/>
</svg>
